<?xml version="1.0" encoding="UTF-8" standalone="no"?>
<!DOCTYPE svg PUBLIC "-//W3C//DTD SVG 1.1//EN"
 "http://www.w3.org/Graphics/SVG/1.1/DTD/svg11.dtd">
<!-- Generated by graphviz version 2.38.0 (20140413.2041)
 -->
<!-- Title: G Pages: 1 -->
<svg width="626pt" height="258pt"
 viewBox="0.00 0.00 626.00 258.00" xmlns="http://www.w3.org/2000/svg" xmlns:xlink="http://www.w3.org/1999/xlink">
<g id="graph0" class="graph" transform="scale(1 1) rotate(0) translate(4 254)">
<title>G</title>
<polygon fill="white" stroke="none" points="-4,4 -4,-254 622,-254 622,4 -4,4"/>
<g id="clust1" class="cluster"><title>cluster_Global</title>
<path fill="none" stroke="gray" d="M20,-8C20,-8 598,-8 598,-8 604,-8 610,-14 610,-20 610,-20 610,-230 610,-230 610,-236 604,-242 598,-242 598,-242 20,-242 20,-242 14,-242 8,-236 8,-230 8,-230 8,-20 8,-20 8,-14 14,-8 20,-8"/>
<text text-anchor="middle" x="309" y="-229.2" font-family="Times New Roman,serif" font-size="11.00" fill="gray">Global</text>
</g>
<!-- \\Test -->
<g id="node1" class="node"><title>\\Test</title>
<polygon fill="none" stroke="black" points="438,-214 384,-214 384,-178 438,-178 438,-214"/>
<text text-anchor="middle" x="411" y="-193.2" font-family="Courier,monospace" font-size="11.00">Test</text>
</g>
<!-- \\SaralController -->
<g id="node7" class="node"><title>\\SaralController</title>
<polygon fill="none" stroke="black" points="297,-214 179,-214 179,-178 297,-178 297,-214"/>
<text text-anchor="middle" x="238" y="-193.2" font-family="Courier,monospace" font-size="11.00">SaralController</text>
</g>
<!-- \\Test&#45;&gt;\\SaralController -->
<g id="edge1" class="edge"><title>\\Test&#45;&gt;\\SaralController</title>
<path fill="none" stroke="black" d="M383.656,-196C363.303,-196 334.179,-196 307.39,-196"/>
<polygon fill="none" stroke="black" points="307.261,-192.5 297.261,-196 307.261,-199.5 307.261,-192.5"/>
</g>
<!-- \\TestModel -->
<g id="node2" class="node"><title>\\TestModel</title>
<polygon fill="none" stroke="black" points="602,-214 525,-214 525,-178 602,-178 602,-214"/>
<text text-anchor="middle" x="563.5" y="-193.2" font-family="Courier,monospace" font-size="11.00">TestModel</text>
</g>
<!-- \\SaralModel -->
<g id="node8" class="node"><title>\\SaralModel</title>
<polygon fill="none" stroke="black" points="453,-160 369,-160 369,-124 453,-124 453,-160"/>
<text text-anchor="middle" x="411" y="-139.2" font-family="Courier,monospace" font-size="11.00">SaralModel</text>
</g>
<!-- \\TestModel&#45;&gt;\\SaralModel -->
<g id="edge2" class="edge"><title>\\TestModel&#45;&gt;\\SaralModel</title>
<path fill="none" stroke="black" d="M524.911,-182.513C506.045,-175.744 482.925,-167.448 462.53,-160.13"/>
<polygon fill="none" stroke="black" points="463.667,-156.82 453.073,-156.737 461.303,-163.409 463.667,-156.82"/>
</g>
<!-- \\Database -->
<g id="node3" class="node"><title>\\Database</title>
<polygon fill="none" stroke="black" points="273.5,-160 202.5,-160 202.5,-124 273.5,-124 273.5,-160"/>
<text text-anchor="middle" x="238" y="-139.2" font-family="Courier,monospace" font-size="11.00">Database</text>
</g>
<!-- \\SaralObject -->
<g id="node9" class="node"><title>\\SaralObject</title>
<polygon fill="none" stroke="black" points="107,-187 16,-187 16,-151 107,-151 107,-187"/>
<text text-anchor="middle" x="61.5" y="-166.2" font-family="Courier,monospace" font-size="11.00">SaralObject</text>
</g>
<!-- \\Database&#45;&gt;\\SaralObject -->
<g id="edge3" class="edge"><title>\\Database&#45;&gt;\\SaralObject</title>
<path fill="none" stroke="black" d="M202.107,-147.399C177.835,-151.154 144.986,-156.237 117.25,-160.529"/>
<polygon fill="none" stroke="black" points="116.635,-157.082 107.288,-162.07 117.705,-164 116.635,-157.082"/>
</g>
<!-- \\DataTable -->
<g id="node4" class="node"><title>\\DataTable</title>
<polygon fill="none" stroke="black" points="602,-160 525,-160 525,-124 602,-124 602,-160"/>
<text text-anchor="middle" x="563.5" y="-139.2" font-family="Courier,monospace" font-size="11.00">DataTable</text>
</g>
<!-- \\Pager -->
<g id="node5" class="node"><title>\\Pager</title>
<polygon fill="none" stroke="black" points="590.5,-106 536.5,-106 536.5,-70 590.5,-70 590.5,-106"/>
<text text-anchor="middle" x="563.5" y="-85.2" font-family="Courier,monospace" font-size="11.00">Pager</text>
</g>
<!-- \\REST -->
<g id="node6" class="node"><title>\\REST</title>
<polygon fill="none" stroke="black" points="590.5,-52 536.5,-52 536.5,-16 590.5,-16 590.5,-52"/>
<text text-anchor="middle" x="563.5" y="-31.2" font-family="Courier,monospace" font-size="11.00">REST</text>
</g>
<!-- \\SaralController&#45;&gt;\\SaralObject -->
<g id="edge4" class="edge"><title>\\SaralController&#45;&gt;\\SaralObject</title>
<path fill="none" stroke="black" d="M178.894,-187.009C158.969,-183.926 136.753,-180.489 117.114,-177.45"/>
<polygon fill="none" stroke="black" points="117.523,-173.972 107.105,-175.902 116.453,-180.89 117.523,-173.972"/>
</g>
<!-- \\SaralModel&#45;&gt;\\Database -->
<g id="edge5" class="edge"><title>\\SaralModel&#45;&gt;\\Database</title>
<path fill="none" stroke="black" d="M368.606,-142C342.951,-142 310.001,-142 283.745,-142"/>
<polygon fill="none" stroke="black" points="283.675,-138.5 273.675,-142 283.675,-145.5 283.675,-138.5"/>
</g>
</g>
</svg>
